<?xml version="1.0" encoding="UTF-8"?>
<svg id="_レイヤー_1" data-name="レイヤー 1" xmlns="http://www.w3.org/2000/svg" viewBox="0 0 1000 1000">
  <defs>
    <style>
      .cls-1 {
        fill: #0028b4;
      }

      .cls-1, .cls-2, .cls-3, .cls-4, .cls-5, .cls-6, .cls-7, .cls-8, .cls-9, .cls-10, .cls-11, .cls-12, .cls-13 {
        stroke-width: 0px;
      }

      .cls-2 {
        fill: #6ae3ff;
      }

      .cls-3 {
        fill: #c37fff;
      }

      .cls-4 {
        fill: #ffc715;
      }

      .cls-5 {
        fill: #5fffef;
      }

      .cls-6 {
        fill: #ffda74;
      }

      .cls-7 {
        fill: #ffaaef;
      }

      .cls-8 {
        fill: #74ceff;
      }

      .cls-9 {
        fill: #00a9df;
      }

      .cls-10 {
        fill: #9f0094;
      }

      .cls-11 {
        fill: #ff949a;
      }

      .cls-12 {
        fill: #c1ff94;
      }

      .cls-13 {
        fill: #3fcbff;
      }
    </style>
  </defs>
  <rect class="cls-8" width="1000" height="1000"/>
  <circle class="cls-10" cx="649" cy="524" r="74"/>
  <path class="cls-6" d="m1000.87,1000.65V419.19c-4.11-.11-8.23-.19-12.37-.19-253.22,0-458.5,205.28-458.5,458.5,0,42.66,5.84,83.96,16.75,123.15h454.12Z"/>
  <path class="cls-3" d="m-1.77-1.77v875.59c400.12-35.76,713.77-371.9,713.77-781.33,0-31.91-1.95-63.36-5.65-94.27H-1.77Z"/>
  <path class="cls-12" d="m691.65,1000.65c3.49-18.97,5.35-38.57,5.35-58.65,0-166.24-125.36-301-280-301s-280,134.76-280,301c0,20.07,1.86,39.67,5.35,58.65h549.3Z"/>
  <path class="cls-11" d="m419.52-1.77c27.29,303,274.86,542.46,581.35,557.04V-1.77H419.52Z"/>
  <circle class="cls-7" cx="252" cy="320" r="143"/>
  <circle class="cls-9" cx="112" cy="685" r="50"/>
  <circle class="cls-2" cx="404.5" cy="728.5" r="113.5"/>
  <path class="cls-4" d="m1000.87,767.51c-10.65-7.25-23.51-11.51-37.37-11.51-36.73,0-66.5,29.77-66.5,66.5s29.77,66.5,66.5,66.5c13.86,0,26.71-4.26,37.37-11.51v-109.98Z"/>
  <path class="cls-5" d="m87.06,1000.65h74.88c18.12-12.1,30.06-32.72,30.06-56.15,0-37.28-30.22-67.5-67.5-67.5s-67.5,30.22-67.5,67.5c0,23.42,11.94,44.05,30.06,56.15Z"/>
  <path class="cls-1" d="m85,0C51.9,0,21.61,12.01-1.77,31.9v204.2c23.38,19.89,53.67,31.9,86.77,31.9,74.01,0,134-59.99,134-134S159.01,0,85,0Z"/>
  <path class="cls-13" d="m345.24-1.77c-7.8,14.71-12.24,31.46-12.24,49.27,0,58.27,47.23,105.5,105.5,105.5s105.5-47.23,105.5-105.5c0-17.81-4.45-34.56-12.25-49.27h-186.51Z"/>
</svg>